<svg width="14" height="14" viewBox="0 0 14 14" fill="none" xmlns="http://www.w3.org/2000/svg">
<mask id="path-1-outside-1_121_28273" maskUnits="userSpaceOnUse" x="-0.195312" y="-0.160156" width="14" height="14" fill="black">
<rect fill="white" x="-0.195312" y="-0.160156" width="14" height="14"/>
<path d="M10.9434 1.3916C11.2481 0.863824 11.9233 0.682632 12.4512 0.987305C12.9789 1.292 13.1599 1.9673 12.8555 2.49512L7.22168 12.2529C7.1804 12.3244 7.13072 12.3888 7.07715 12.4473C7.04392 12.4927 7.00883 12.538 6.96777 12.5791C6.53691 13.0098 5.83823 13.0096 5.40723 12.5791L1.12793 8.2998C0.697111 7.86883 0.697111 7.17023 1.12793 6.73926C1.55889 6.30829 2.25745 6.30839 2.68848 6.73926L5.96387 10.0146L10.9434 1.3916Z"/>
</mask>
<path d="M10.9434 1.3916C11.2481 0.863824 11.9233 0.682632 12.4512 0.987305C12.9789 1.292 13.1599 1.9673 12.8555 2.49512L7.22168 12.2529C7.1804 12.3244 7.13072 12.3888 7.07715 12.4473C7.04392 12.4927 7.00883 12.538 6.96777 12.5791C6.53691 13.0098 5.83823 13.0096 5.40723 12.5791L1.12793 8.2998C0.697111 7.86883 0.697111 7.17023 1.12793 6.73926C1.55889 6.30829 2.25745 6.30839 2.68848 6.73926L5.96387 10.0146L10.9434 1.3916Z" fill="white"/>
<path d="M10.9434 1.3916L10.7161 1.26035L10.7161 1.26035L10.9434 1.3916ZM12.4512 0.987305L12.5824 0.760007L12.5824 0.759993L12.4512 0.987305ZM12.8555 2.49512L13.0828 2.62635L13.0828 2.62625L12.8555 2.49512ZM7.22168 12.2529L6.99438 12.1217L6.99438 12.1217L7.22168 12.2529ZM7.07715 12.4473L6.88371 12.2699L6.87387 12.2806L6.86528 12.2923L7.07715 12.4473ZM6.96777 12.5791L7.15333 12.7647L7.15336 12.7647L6.96777 12.5791ZM5.40723 12.5791L5.22164 12.7647L5.22175 12.7648L5.40723 12.5791ZM1.12793 8.2998L0.942308 8.48536L0.942342 8.48539L1.12793 8.2998ZM1.12793 6.73926L0.942342 6.55367L0.942308 6.5537L1.12793 6.73926ZM2.68848 6.73926L2.87406 6.55367L2.87403 6.55364L2.68848 6.73926ZM5.96387 10.0146L5.77828 10.2002L6.02012 10.4421L6.19115 10.1459L5.96387 10.0146ZM10.9434 1.3916L11.1706 1.52285C11.403 1.12049 11.9178 0.982453 12.32 1.21462L12.4512 0.987305L12.5824 0.759993C11.9289 0.38281 11.0933 0.607163 10.7161 1.26035L10.9434 1.3916ZM12.4512 0.987305L12.3199 1.2146C12.7222 1.44682 12.8602 1.96166 12.6281 2.36399L12.8555 2.49512L13.0828 2.62625C13.4596 1.97294 13.2357 1.13717 12.5824 0.760007L12.4512 0.987305ZM12.8555 2.49512L12.6282 2.36388L6.99438 12.1217L7.22168 12.2529L7.44898 12.3842L13.0828 2.62635L12.8555 2.49512ZM7.22168 12.2529L6.99438 12.1217C6.96451 12.1734 6.92709 12.2226 6.88371 12.2699L7.07715 12.4473L7.27058 12.6247C7.33435 12.5551 7.39629 12.4754 7.44898 12.3842L7.22168 12.2529ZM7.07715 12.4473L6.86528 12.2923C6.83418 12.3349 6.80862 12.3671 6.78219 12.3935L6.96777 12.5791L7.15336 12.7647C7.20903 12.709 7.25365 12.6505 7.28901 12.6022L7.07715 12.4473ZM6.96777 12.5791L6.78222 12.3935C6.45392 12.7217 5.92131 12.7216 5.5927 12.3934L5.40723 12.5791L5.22175 12.7648C5.75515 13.2976 6.61989 13.298 7.15333 12.7647L6.96777 12.5791ZM5.40723 12.5791L5.59281 12.3935L1.31352 8.11422L1.12793 8.2998L0.942342 8.48539L5.22164 12.7647L5.40723 12.5791ZM1.12793 8.2998L1.31355 8.11425C0.985184 7.78576 0.985184 7.2533 1.31355 6.92481L1.12793 6.73926L0.942308 6.5537C0.409038 7.08717 0.409037 7.95189 0.942308 8.48536L1.12793 8.2998ZM1.12793 6.73926L1.31352 6.92485C1.64195 6.59641 2.17435 6.59643 2.50292 6.92488L2.68848 6.73926L2.87403 6.55364C2.34055 6.02035 1.47584 6.02017 0.942342 6.55367L1.12793 6.73926ZM2.68848 6.73926L2.50289 6.92485L5.77828 10.2002L5.96387 10.0146L6.14946 9.82906L2.87406 6.55367L2.68848 6.73926ZM5.96387 10.0146L6.19115 10.1459L11.1706 1.52285L10.9434 1.3916L10.7161 1.26035L5.73658 9.8834L5.96387 10.0146Z" fill="white" mask="url(#path-1-outside-1_121_28273)"/>
</svg>
