<svg width="33" height="34" viewBox="0 0 33 34" fill="none" xmlns="http://www.w3.org/2000/svg">
<circle cx="15" cy="15" r="15" fill="#E1E1E1"/>
<path fill-rule="evenodd" clip-rule="evenodd" d="M29.1347 20.0331C29.695 18.4599 30 16.7656 30 15C30 6.71573 23.2843 0 15 0C6.71573 0 0 6.71573 0 15C0 23.2843 6.71573 30 15 30C18.6857 30 22.0609 28.6707 24.6724 26.4654L10.8066 12.5996L15.9746 6.87305L29.1347 20.0331Z" fill="#E1E1E1"/>
<path fill-rule="evenodd" clip-rule="evenodd" d="M23.5293 27.3407L13.837 17.6484L10.5366 21.4379L18.6512 29.5525C20.4231 29.1094 22.0701 28.3511 23.5293 27.3407Z" fill="#E1E1E1"/>
<g filter="url(#filter0_d_105_30065)">
<path d="M14.0323 17.8862C14.9011 18.9593 15.0501 20.9221 13.977 21.7909C12.904 22.6597 11.0151 22.1056 10.1463 21.0325C8.99627 19.6121 8.8846 17.351 8.90773 16.2374C8.91537 15.8693 9.23824 15.6079 9.59988 15.677C10.6939 15.8861 12.8823 16.4658 14.0323 17.8862Z" fill="white"/>
<path d="M10.2778 20.1351V20.1351C10.6534 20.5989 10.7802 20.1074 10.5468 19.5581C10.3461 19.0856 10.2079 18.5545 10.1113 18.1787C10.1047 18.1531 10.0982 18.1279 10.0917 18.103C9.85582 17.2011 9.35957 17.3256 9.51467 18.2448C9.62434 18.8947 9.84515 19.6007 10.2778 20.1351Z" fill="#E1E1E1"/>
<path d="M21.7181 15.939C21.9333 17.3029 21.08 19.0768 19.7162 19.292C18.3523 19.5071 16.9944 18.0821 16.7792 16.7182C16.4944 14.913 17.5293 12.8995 18.1066 11.947C18.2974 11.6321 18.7078 11.5674 18.9863 11.8082C19.8288 12.5367 21.4333 14.1338 21.7181 15.939Z" fill="white"/>
<path d="M17.3422 16.0072V16.0072C17.4352 16.5967 17.791 16.2347 17.8638 15.6423C17.9265 15.1328 18.0726 14.6038 18.1771 14.2301C18.1842 14.2047 18.1912 14.1795 18.198 14.1548C18.4451 13.2559 17.9532 13.1153 17.6275 13.9887C17.3972 14.6063 17.2351 15.328 17.3422 16.0072Z" fill="#E1E1E1"/>
<path d="M14.7386 12.0551C13.83 13.0948 11.9217 13.5776 10.882 12.6691C9.84234 11.7605 10.065 9.80468 10.9736 8.765C12.1762 7.38883 14.3848 6.89179 15.4859 6.72397C15.8498 6.6685 16.1627 6.94185 16.1565 7.30999C16.1377 8.42364 15.9412 10.6789 14.7386 12.0551Z" fill="white"/>
<path d="M11.8801 8.74109V8.74109C11.4874 9.19047 11.9934 9.23129 12.4946 8.90737C12.9258 8.62871 13.4254 8.40163 13.7791 8.24217C13.8032 8.2313 13.827 8.22053 13.8504 8.20987C14.6985 7.82311 14.491 7.35548 13.6119 7.66563C12.9903 7.88493 12.3326 8.22332 11.8801 8.74109Z" fill="#E1E1E1"/>
</g>
<defs>
<filter id="filter0_d_105_30065" x="4.90527" y="4.7168" width="20.8457" height="23.5024" filterUnits="userSpaceOnUse" color-interpolation-filters="sRGB">
<feFlood flood-opacity="0" result="BackgroundImageFix"/>
<feColorMatrix in="SourceAlpha" type="matrix" values="0 0 0 0 0 0 0 0 0 0 0 0 0 0 0 0 0 0 127 0" result="hardAlpha"/>
<feOffset dy="2"/>
<feGaussianBlur stdDeviation="2"/>
<feComposite in2="hardAlpha" operator="out"/>
<feColorMatrix type="matrix" values="0 0 0 0 0 0 0 0 0 0 0 0 0 0 0 0 0 0 0.1 0"/>
<feBlend mode="normal" in2="BackgroundImageFix" result="effect1_dropShadow_105_30065"/>
<feBlend mode="normal" in="SourceGraphic" in2="effect1_dropShadow_105_30065" result="shape"/>
</filter>
</defs>
</svg>